<?xml version="1.0" encoding="UTF-8" standalone="no"?>
<svg
   inkscape:version="1.3 (0e150ed, 2023-07-21)"
   sodipodi:docname="Warburg Coat of Arms.svg"
   id="svg2130"
   version="1.1"
   viewBox="0 0 382.08 498.056"
   height="498.056"
   width="382.08002"
   xmlns:inkscape="http://www.inkscape.org/namespaces/inkscape"
   xmlns:sodipodi="http://sodipodi.sourceforge.net/DTD/sodipodi-0.dtd"
   xmlns="http://www.w3.org/2000/svg"
   xmlns:svg="http://www.w3.org/2000/svg">
  <defs
     id="defs2124" />
  <sodipodi:namedview
     inkscape:pagecheckerboard="false"
     fit-margin-bottom="0"
     fit-margin-right="0"
     fit-margin-left="0"
     fit-margin-top="0"
     lock-margins="true"
     units="px"
     inkscape:snap-smooth-nodes="true"
     inkscape:snap-object-midpoints="true"
     inkscape:window-maximized="0"
     inkscape:window-y="0"
     inkscape:window-x="0"
     inkscape:window-height="900"
     inkscape:window-width="1440"
     showgrid="false"
     inkscape:document-rotation="0"
     inkscape:current-layer="g843"
     inkscape:document-units="px"
     inkscape:cy="239.98158"
     inkscape:cx="364.78875"
     inkscape:zoom="1.1938416"
     inkscape:pageshadow="2"
     inkscape:pageopacity="0"
     borderopacity="1.0"
     bordercolor="#666666"
     pagecolor="#333333"
     id="base"
     showguides="true"
     inkscape:guide-bbox="true"
     inkscape:snap-intersection-paths="true"
     inkscape:object-paths="true"
     inkscape:snap-grids="false"
     inkscape:snap-global="true"
     inkscape:lockguides="false"
     guidecolor="#00ffff"
     guideopacity="0.49803922"
     inkscape:snap-midpoints="true"
     inkscape:showpageshadow="0"
     inkscape:deskcolor="#d1d1d1" />
  <g
     id="layer1"
     inkscape:groupmode="layer"
     inkscape:label="warburg"
     transform="translate(-217.62666,7.028002)">
    <g
       id="g843"
       transform="translate(197.83972,-8.000028)"
       inkscape:label="coa"
       style="display:inline">
      <path
         id="path3519"
         style="display:inline;fill:#ffffff;stroke:#000000;stroke-width:3.06;stroke-opacity:0"
         d="m 226.31534,321.04219 c 16.69966,110.79775 134.69549,71.87528 73.46719,-12.1598 0.19026,47.93539 -52.03832,50.82223 -64.04832,12.1598 z m 0.26938,-40.27824 c 31.93751,-164.69436 185.08456,-101.83764 77.23474,-0.14701 0.1912,-47.93539 -55.80587,-38.51545 -67.81587,0.14698 z m -11.04833,40.20851 c 0.0631,21.18025 47.53609,84.12364 -4.70944,121.67053 -52.24553,-37.54689 -4.77254,-100.49028 -4.70944,-121.67053 z m -20.19783,0.0697 c -16.69966,110.79775 -134.695491,71.87528 -73.46719,-12.1598 -0.19026,47.93539 52.03832,50.82223 64.04832,12.1598 z M 174.93682,293.994 h 71.78026 c 2.97166,0 5.381,2.41011 5.381,5.38175 v 3.00838 c 0,2.97259 -2.40934,5.38269 -5.381,5.38269 h -71.78026 c -2.97166,0 -5.381,-2.4101 -5.381,-5.38269 v -3.00838 c 9.4e-4,-2.97164 2.40934,-5.38175 5.381,-5.38175 z m 6.01818,14.161 h 59.7439 c 2.76632,0 5.00707,2.24239 5.00707,5.00864 v 2.80016 c 0,2.76719 -2.24169,5.00864 -5.00707,5.00864 H 180.955 c -2.76632,0 -5.00707,-2.24239 -5.00707,-5.00864 v -2.80016 c 0,-2.76719 2.24169,-5.00864 5.00707,-5.00864 z m 0,-27.32328 h 59.7439 c 2.76632,0 5.00707,2.2424 5.00707,5.00864 v 2.80017 c 0,2.76719 -2.24169,5.00864 -5.00707,5.00864 H 180.955 c -2.76632,0 -5.00707,-2.2424 -5.00707,-5.00864 v -2.80017 c 0,-2.76718 2.24169,-5.00864 5.00707,-5.00864 z m 14.11418,-0.0678 C 163.13167,116.06958 9.9846183,178.9263 117.83444,280.61693 c -0.1912,-47.93539 55.80587,-38.51545 67.81587,0.14698 z m 10.10645,0.0678 c -26.86921,-62.48267 -33.94561,-92.02289 -34.96756,-120.81408 0.60846,-27.23283 8.29897,-57.57297 40.61888,-117.772732 32.31991,60.199762 40.01042,90.539902 40.61888,117.772732 -1.02195,28.79119 -8.09835,58.33141 -34.96756,120.81408 z"
         inkscape:label="lis" />
    </g>
  </g>
</svg>
